
  <svg width='476.3653718043597px'
       height='342.61844616523166px'
       viewBox='0 0 476.3653718043597 342.61844616523166'
       xmlns='http://www.w3.org/2000/svg'
       xmlns:xlink="http://www.w3.org/1999/xlink">

    <style type='text/css'>
    .keycap .border { stroke: black; stroke-width: 2; }
    .keycap .inner.border { stroke: rgba(0,0,0,.1); }
    </style>
    <defs>
      <linearGradient id="DCS">
        <stop offset="0%" stop-color="black" stop-opacity="0"/>
        <stop offset="40%" stop-color="black" stop-opacity="0.1"/>
        <stop offset="60%" stop-color="black" stop-opacity="0.1"/>
        <stop offset="100%" stop-color="black" stop-opacity="0"/>
      </linearGradient>
      <linearGradient id="SPACE" x1="0%" x2="0%" y1="0%" y2="100%">
        <stop offset="0%" stop-color="black" stop-opacity="0.1"/>
        <stop offset="20%" stop-color="black" stop-opacity="0.0"/>
        <stop offset="40%" stop-color="black" stop-opacity="0.0"/>
        <stop offset="100%" stop-color="black" stop-opacity="0.1"/>
      </linearGradient>
      <radialGradient id="DSA">
        <stop offset="0%" stop-color="black" stop-opacity="0.1"/>
        <stop offset="10%" stop-color="black" stop-opacity="0.1"/>
        <stop offset="100%" stop-color="black" stop-opacity="0"/>
      </radialGradient>
      <radialGradient id="SA" xlink:href="#DSA" />
    </defs>

    <g transform='translate(10,10)'>
      <rect width="456.3653718043597" height="322.61844616523166"
            stroke="#ddd" stroke-width="1" fill="#ffffff" rx="6"/>
      <g transform='translate(5,5)'>
        
  <g class='  keycap'
  >

  
    <!-- Outer Border -->
    <rect x="163" y="1"
          width="52" height="52"
          rx="5" fill="#f1ede6" class="outer border"/>
    
    <!-- Outer Fill -->
    <rect x="163" y="1"
          width="52" height="52"
          rx="5" fill="#f1ede6"/>
    

    
      <!-- Inner Border -->
      <rect x="169" y="4"
            width="40" height="40"
            rx="5" fill="#fffef7" class="inner border"/>
      
      <!-- Inner Fill -->
      <rect x="169" y="4"
            width="40" height="40"
            rx="5" fill="#fffef7"/>
      
      

     
   
  </g>

  <g class='  keycap'
  >

  
    <!-- Outer Border -->
    <rect x="109" y="14.5"
          width="52" height="52"
          rx="5" fill="#f1ede6" class="outer border"/>
    
    <!-- Outer Fill -->
    <rect x="109" y="14.5"
          width="52" height="52"
          rx="5" fill="#f1ede6"/>
    

    
      <!-- Inner Border -->
      <rect x="115" y="17.5"
            width="40" height="40"
            rx="5" fill="#fffef7" class="inner border"/>
      
      <!-- Inner Fill -->
      <rect x="115" y="17.5"
            width="40" height="40"
            rx="5" fill="#fffef7"/>
      
      

     
   
  </g>

  <g class='  keycap'
  >

  
    <!-- Outer Border -->
    <rect x="217" y="14.5"
          width="52" height="52"
          rx="5" fill="#f1ede6" class="outer border"/>
    
    <!-- Outer Fill -->
    <rect x="217" y="14.5"
          width="52" height="52"
          rx="5" fill="#f1ede6"/>
    

    
      <!-- Inner Border -->
      <rect x="223" y="17.5"
            width="40" height="40"
            rx="5" fill="#fffef7" class="inner border"/>
      
      <!-- Inner Fill -->
      <rect x="223" y="17.5"
            width="40" height="40"
            rx="5" fill="#fffef7"/>
      
      

     
   
  </g>

  <g class='  keycap'
  >

  
    <!-- Outer Border -->
    <rect x="55" y="28"
          width="52" height="52"
          rx="5" fill="#f1ede6" class="outer border"/>
    
    <!-- Outer Fill -->
    <rect x="55" y="28"
          width="52" height="52"
          rx="5" fill="#f1ede6"/>
    

    
      <!-- Inner Border -->
      <rect x="61" y="31"
            width="40" height="40"
            rx="5" fill="#fffef7" class="inner border"/>
      
      <!-- Inner Fill -->
      <rect x="61" y="31"
            width="40" height="40"
            rx="5" fill="#fffef7"/>
      
      

     
   
  </g>

  <g class='  keycap'
  >

  
    <!-- Outer Border -->
    <rect x="271" y="41.5"
          width="52" height="52"
          rx="5" fill="#f1ede6" class="outer border"/>
    
    <!-- Outer Fill -->
    <rect x="271" y="41.5"
          width="52" height="52"
          rx="5" fill="#f1ede6"/>
    

    
      <!-- Inner Border -->
      <rect x="277" y="44.5"
            width="40" height="40"
            rx="5" fill="#fffef7" class="inner border"/>
      
      <!-- Inner Fill -->
      <rect x="277" y="44.5"
            width="40" height="40"
            rx="5" fill="#fffef7"/>
      
      

     
   
  </g>

  <g class='  keycap'
  >

  
    <!-- Outer Border -->
    <rect x="163" y="55"
          width="52" height="52"
          rx="5" fill="#f1ede6" class="outer border"/>
    
    <!-- Outer Fill -->
    <rect x="163" y="55"
          width="52" height="52"
          rx="5" fill="#f1ede6"/>
    

    
      <!-- Inner Border -->
      <rect x="169" y="58"
            width="40" height="40"
            rx="5" fill="#fffef7" class="inner border"/>
      
      <!-- Inner Fill -->
      <rect x="169" y="58"
            width="40" height="40"
            rx="5" fill="#fffef7"/>
      
      

     
   
  </g>

  <g class='  keycap'
  >

  
    <!-- Outer Border -->
    <rect x="109" y="68.5"
          width="52" height="52"
          rx="5" fill="#f1ede6" class="outer border"/>
    
    <!-- Outer Fill -->
    <rect x="109" y="68.5"
          width="52" height="52"
          rx="5" fill="#f1ede6"/>
    

    
      <!-- Inner Border -->
      <rect x="115" y="71.5"
            width="40" height="40"
            rx="5" fill="#fffef7" class="inner border"/>
      
      <!-- Inner Fill -->
      <rect x="115" y="71.5"
            width="40" height="40"
            rx="5" fill="#fffef7"/>
      
      

     
   
  </g>

  <g class='  keycap'
  >

  
    <!-- Outer Border -->
    <rect x="217" y="68.5"
          width="52" height="52"
          rx="5" fill="#f1ede6" class="outer border"/>
    
    <!-- Outer Fill -->
    <rect x="217" y="68.5"
          width="52" height="52"
          rx="5" fill="#f1ede6"/>
    

    
      <!-- Inner Border -->
      <rect x="223" y="71.5"
            width="40" height="40"
            rx="5" fill="#fffef7" class="inner border"/>
      
      <!-- Inner Fill -->
      <rect x="223" y="71.5"
            width="40" height="40"
            rx="5" fill="#fffef7"/>
      
      

     
   
  </g>

  <g class='  keycap'
  >

  
    <!-- Outer Border -->
    <rect x="55" y="82"
          width="52" height="52"
          rx="5" fill="#f1ede6" class="outer border"/>
    
    <!-- Outer Fill -->
    <rect x="55" y="82"
          width="52" height="52"
          rx="5" fill="#f1ede6"/>
    

    
      <!-- Inner Border -->
      <rect x="61" y="85"
            width="40" height="40"
            rx="5" fill="#fffef7" class="inner border"/>
      
      <!-- Inner Fill -->
      <rect x="61" y="85"
            width="40" height="40"
            rx="5" fill="#fffef7"/>
      
      

     
   
  </g>

  <g class='  keycap'
  >

  
    <!-- Outer Border -->
    <rect x="1" y="95.5"
          width="52" height="52"
          rx="5" fill="#f1ede6" class="outer border"/>
    
    <!-- Outer Fill -->
    <rect x="1" y="95.5"
          width="52" height="52"
          rx="5" fill="#f1ede6"/>
    

    
      <!-- Inner Border -->
      <rect x="7" y="98.5"
            width="40" height="40"
            rx="5" fill="#fffef7" class="inner border"/>
      
      <!-- Inner Fill -->
      <rect x="7" y="98.5"
            width="40" height="40"
            rx="5" fill="#fffef7"/>
      
      

     
   
  </g>

  <g class='  keycap'
  >

  
    <!-- Outer Border -->
    <rect x="271" y="95.5"
          width="52" height="52"
          rx="5" fill="#f1ede6" class="outer border"/>
    
    <!-- Outer Fill -->
    <rect x="271" y="95.5"
          width="52" height="52"
          rx="5" fill="#f1ede6"/>
    

    
      <!-- Inner Border -->
      <rect x="277" y="98.5"
            width="40" height="40"
            rx="5" fill="#fffef7" class="inner border"/>
      
      <!-- Inner Fill -->
      <rect x="277" y="98.5"
            width="40" height="40"
            rx="5" fill="#fffef7"/>
      
      

     
   
  </g>

  <g class='  keycap'
  >

  
    <!-- Outer Border -->
    <rect x="163" y="109"
          width="52" height="52"
          rx="5" fill="#f1ede6" class="outer border"/>
    
    <!-- Outer Fill -->
    <rect x="163" y="109"
          width="52" height="52"
          rx="5" fill="#f1ede6"/>
    

    
      <!-- Inner Border -->
      <rect x="169" y="112"
            width="40" height="40"
            rx="5" fill="#fffef7" class="inner border"/>
      
      <!-- Inner Fill -->
      <rect x="169" y="112"
            width="40" height="40"
            rx="5" fill="#fffef7"/>
      
      

     
   
  </g>

  <g class='  keycap'
  >

  
    <!-- Outer Border -->
    <rect x="109" y="122.5"
          width="52" height="52"
          rx="5" fill="#f1ede6" class="outer border"/>
    
    <!-- Outer Fill -->
    <rect x="109" y="122.5"
          width="52" height="52"
          rx="5" fill="#f1ede6"/>
    

    
      <!-- Inner Border -->
      <rect x="115" y="125.5"
            width="40" height="40"
            rx="5" fill="#fffef7" class="inner border"/>
      
      <!-- Inner Fill -->
      <rect x="115" y="125.5"
            width="40" height="40"
            rx="5" fill="#fffef7"/>
      
      

     
   
  </g>

  <g class='  keycap'
  >

  
    <!-- Outer Border -->
    <rect x="217" y="122.5"
          width="52" height="52"
          rx="5" fill="#f1ede6" class="outer border"/>
    
    <!-- Outer Fill -->
    <rect x="217" y="122.5"
          width="52" height="52"
          rx="5" fill="#f1ede6"/>
    

    
      <!-- Inner Border -->
      <rect x="223" y="125.5"
            width="40" height="40"
            rx="5" fill="#fffef7" class="inner border"/>
      
      <!-- Inner Fill -->
      <rect x="223" y="125.5"
            width="40" height="40"
            rx="5" fill="#fffef7"/>
      
      

     
   
  </g>

  <g class='  keycap'
  >

  
    <!-- Outer Border -->
    <rect x="55" y="136"
          width="52" height="52"
          rx="5" fill="#f1ede6" class="outer border"/>
    
    <!-- Outer Fill -->
    <rect x="55" y="136"
          width="52" height="52"
          rx="5" fill="#f1ede6"/>
    

    
      <!-- Inner Border -->
      <rect x="61" y="139"
            width="40" height="40"
            rx="5" fill="#fffef7" class="inner border"/>
      
      <!-- Inner Fill -->
      <rect x="61" y="139"
            width="40" height="40"
            rx="5" fill="#fffef7"/>
      
      

     
   
  </g>

  <g class='  keycap'
  >

  
    <!-- Outer Border -->
    <rect x="1" y="149.5"
          width="52" height="52"
          rx="5" fill="#f1ede6" class="outer border"/>
    
    <!-- Outer Fill -->
    <rect x="1" y="149.5"
          width="52" height="52"
          rx="5" fill="#f1ede6"/>
    

    
      <!-- Inner Border -->
      <rect x="7" y="152.5"
            width="40" height="40"
            rx="5" fill="#fffef7" class="inner border"/>
      
      <!-- Inner Fill -->
      <rect x="7" y="152.5"
            width="40" height="40"
            rx="5" fill="#fffef7"/>
      
      

     
   
  </g>

  <g class='  keycap'
  >

  
    <!-- Outer Border -->
    <rect x="271" y="149.5"
          width="52" height="52"
          rx="5" fill="#f1ede6" class="outer border"/>
    
    <!-- Outer Fill -->
    <rect x="271" y="149.5"
          width="52" height="52"
          rx="5" fill="#f1ede6"/>
    

    
      <!-- Inner Border -->
      <rect x="277" y="152.5"
            width="40" height="40"
            rx="5" fill="#fffef7" class="inner border"/>
      
      <!-- Inner Fill -->
      <rect x="277" y="152.5"
            width="40" height="40"
            rx="5" fill="#fffef7"/>
      
      

     
   
  </g>

  <g class='  keycap'
  >

  
    <!-- Outer Border -->
    <rect x="217" y="176.5"
          width="52" height="52"
          rx="5" fill="#f1ede6" class="outer border"/>
    
    <!-- Outer Fill -->
    <rect x="217" y="176.5"
          width="52" height="52"
          rx="5" fill="#f1ede6"/>
    

    
      <!-- Inner Border -->
      <rect x="223" y="179.5"
            width="40" height="40"
            rx="5" fill="#fffef7" class="inner border"/>
      
      <!-- Inner Fill -->
      <rect x="223" y="179.5"
            width="40" height="40"
            rx="5" fill="#fffef7"/>
      
      

     
   
  </g>

  <g class='  keycap'
  >

  
    <!-- Outer Border -->
    <rect x="1" y="203.5"
          width="52" height="52"
          rx="5" fill="#f1ede6" class="outer border"/>
    
    <!-- Outer Fill -->
    <rect x="1" y="203.5"
          width="52" height="52"
          rx="5" fill="#f1ede6"/>
    

    
      <!-- Inner Border -->
      <rect x="7" y="206.5"
            width="40" height="40"
            rx="5" fill="#fffef7" class="inner border"/>
      
      <!-- Inner Fill -->
      <rect x="7" y="206.5"
            width="40" height="40"
            rx="5" fill="#fffef7"/>
      
      

     
   
  </g>

  <g class='  keycap'
  
     transform="rotate(30 356.4 229.5)"
  >

  
    <!-- Outer Border -->
    <rect x="338.5" y="217"
          width="52" height="52"
          rx="5" fill="#f1ede6" class="outer border"/>
    
    <!-- Outer Fill -->
    <rect x="338.5" y="217"
          width="52" height="52"
          rx="5" fill="#f1ede6"/>
    

    
      <!-- Inner Border -->
      <rect x="344.5" y="220"
            width="40" height="40"
            rx="5" fill="#fffef7" class="inner border"/>
      
      <!-- Inner Fill -->
      <rect x="344.5" y="220"
            width="40" height="40"
            rx="5" fill="#fffef7"/>
      
      

     
   
  </g>

  <g class='  keycap'
  
     transform="rotate(30 405 229.5)"
  >

  
    <!-- Outer Border -->
    <rect x="406" y="241.3"
          width="52" height="52"
          rx="5" fill="#f1ede6" class="outer border"/>
    
    <!-- Outer Fill -->
    <rect x="406" y="241.3"
          width="52" height="52"
          rx="5" fill="#f1ede6"/>
    

    
      <!-- Inner Border -->
      <rect x="412" y="244.3"
            width="40" height="40"
            rx="5" fill="#fffef7" class="inner border"/>
      
      <!-- Inner Fill -->
      <rect x="412" y="244.3"
            width="40" height="40"
            rx="5" fill="#fffef7"/>
      
      

     
   
  </g>

      </g>
    </g>
  </svg>
